<?xml version="1.0" encoding="UTF-8" standalone="no"?>
<svg
   xmlns:dc="http://purl.org/dc/elements/1.1/"
   xmlns:cc="http://creativecommons.org/ns#"
   xmlns:rdf="http://www.w3.org/1999/02/22-rdf-syntax-ns#"
   xmlns:svg="http://www.w3.org/2000/svg"
   xmlns="http://www.w3.org/2000/svg"
   xmlns:sodipodi="http://sodipodi.sourceforge.net/DTD/sodipodi-0.dtd"
   xmlns:inkscape="http://www.inkscape.org/namespaces/inkscape"
   viewBox="0 0 128 128"
   version="1.1"
   id="svg12"
   sodipodi:docname="house-308936 (copy).svg"
   inkscape:version="0.92.4 (unknown)">
  <metadata
     id="metadata18">
    <rdf:RDF>
      <cc:Work
         rdf:about="">
        <dc:format>image/svg+xml</dc:format>
        <dc:type
           rdf:resource="http://purl.org/dc/dcmitype/StillImage" />
      </cc:Work>
    </rdf:RDF>
  </metadata>
  <defs
     id="defs16" />
  <sodipodi:namedview
     pagecolor="#ffffff"
     bordercolor="#666666"
     borderopacity="1"
     objecttolerance="10"
     gridtolerance="10"
     guidetolerance="10"
     inkscape:pageopacity="0"
     inkscape:pageshadow="2"
     inkscape:window-width="1535"
     inkscape:window-height="876"
     id="namedview14"
     showgrid="false"
     inkscape:zoom="1.84375"
     inkscape:cx="64"
     inkscape:cy="64"
     inkscape:window-x="65"
     inkscape:window-y="24"
     inkscape:window-maximized="1"
     inkscape:current-layer="svg12" />
  <g
     transform="matrix(.36867 0 0 .36867 7.7552 456.72)"
     fill="#4c4c4c"
     id="g8"
     style="fill:#ffffff;fill-opacity:1">
    <path
       d="m248.04-1062.8zl-95.449-84.53-95.504 84.567v120.84c0 3.1208 2.5218 5.6243 5.6427 5.6243h59.688v-52.982c0-3.1208 2.5035-5.6426 5.6244-5.6426h49.044c3.1208 0 5.6243 2.5218 5.6243 5.6426v52.982h59.706c3.1208 0 5.6244-2.5035 5.6244-5.6243v-120.88zm-190.95 0.0366z"
       id="path2"
       style="fill:#ffffff;fill-opacity:1" />
    <path
       d="m152.04-1193.6l-135.45 119.94 14.268 16.097 121.74-107.8 121.71 107.8 14.241-16.097-135.42-119.94-0.5264 0.6096-0.5541-0.6096z"
       id="path4"
       style="fill:#ffffff;fill-opacity:1" />
    <path
       d="m57.086-1176.4h34.338l-0.2992 20.338-34.038 30.75v-51.088z"
       id="path6"
       style="fill:#ffffff;fill-opacity:1" />
  </g>
  <rect
     x="5.375"
     y="2.5"
     width="121.5"
     height="121.5"
     fill="none"
     stroke-dasharray="null"
     stroke-linecap="null"
     stroke-linejoin="null"
     stroke-width="59"
     id="rect10" />
</svg>
